<?xml version="1.0" standalone="no"?>
<!DOCTYPE svg PUBLIC "-//W3C//DTD SVG 20010904//EN"
 "http://www.w3.org/TR/2001/REC-SVG-20010904/DTD/svg10.dtd">
<svg version="1.0" xmlns="http://www.w3.org/2000/svg"
 width="1024.000000pt" height="1024.000000pt" viewBox="0 0 1024.000000 1024.000000"
 preserveAspectRatio="xMidYMid meet">

<g transform="translate(0.000000,1024.000000) scale(0.100000,-0.100000)"
fill="#000000" stroke="none">
<path d="M6130 9644 c-282 -36 -581 -173 -908 -418 -314 -235 -583 -540 -838
-953 -147 -239 -219 -346 -273 -405 -76 -83 -253 -178 -616 -328 -253 -105
-361 -167 -439 -250 -146 -156 -137 -376 23 -567 91 -110 239 -213 403 -281
82 -34 98 -45 137 -93 24 -30 91 -105 150 -167 58 -63 107 -118 109 -122 5
-15 -41 -50 -105 -81 -74 -35 -90 -58 -73 -100 14 -33 93 -110 136 -132 32
-17 119 -42 175 -51 l36 -6 5 -73 c5 -81 27 -131 81 -189 l34 -37 -44 -32
c-90 -64 -142 -154 -158 -272 -5 -39 -11 -50 -35 -62 -104 -54 -152 -106 -165
-180 -5 -35 -13 -44 -57 -70 -119 -70 -271 -261 -423 -532 -32 -57 -61 -103
-65 -103 -4 0 -20 4 -36 10 -16 5 -94 21 -173 35 -108 18 -148 22 -163 14 -17
-9 -53 -77 -135 -257 -11 -25 -19 -32 -31 -27 -9 3 -54 9 -98 12 -74 5 -83 4
-103 -16 -11 -11 -21 -32 -21 -46 0 -14 41 -107 91 -206 50 -100 110 -222 133
-273 l43 -92 -58 -120 c-110 -223 -190 -430 -225 -582 -13 -56 -13 -66 1 -97
29 -61 164 -108 310 -108 97 0 174 15 269 54 39 16 85 29 102 29 45 0 309 -66
834 -210 185 -50 573 -168 725 -220 53 -18 117 -49 157 -76 143 -99 326 -97
494 3 90 54 267 111 719 232 169 45 298 77 835 207 80 19 166 42 191 51 44 15
48 15 125 -10 229 -76 388 -74 538 6 87 46 126 88 126 136 0 73 -114 382 -294
798 -36 84 -66 156 -66 161 0 5 18 48 40 96 46 99 53 161 21 190 -21 19 -83
24 -137 12 -32 -7 -32 -7 -87 96 -93 175 -325 576 -379 656 -63 94 -116 152
-190 209 -38 29 -58 51 -58 65 0 72 -62 158 -173 241 -42 32 -56 58 -86 164
-35 121 -108 192 -253 245 -59 21 -65 27 -48 44 5 5 18 34 28 64 l19 55 109 0
c103 0 113 2 182 34 94 44 165 116 160 163 -3 29 -9 34 -72 60 -66 27 -136 71
-136 86 0 4 21 22 46 41 24 19 69 58 98 87 29 29 63 55 77 58 223 45 383 107
518 203 133 95 233 210 246 283 9 49 -13 74 -137 155 -335 220 -620 471 -699
617 -133 247 -280 748 -314 1075 -9 86 12 151 78 238 52 69 54 70 98 68 59 -2
153 -38 195 -76 63 -55 90 -138 68 -210 -10 -34 -45 -67 -70 -67 -38 0 -54
-11 -54 -36 0 -35 52 -64 114 -64 79 0 126 19 182 75 92 91 113 207 75 416
-71 392 -270 659 -546 733 -61 17 -231 28 -295 20z m-742 -2386 c50 -170 78
-244 121 -318 52 -92 51 -98 -12 -99 -56 -2 -141 -40 -179 -80 -40 -42 -49
-71 -23 -71 9 0 42 11 73 24 92 37 157 49 237 44 67 -4 82 -10 181 -66 60 -34
119 -62 131 -62 34 0 48 -62 48 -223 0 -128 2 -140 21 -155 l21 -17 -18 -103
c-47 -269 -161 -484 -361 -678 -113 -110 -196 -169 -314 -226 -82 -40 -95 -43
-169 -43 -77 0 -85 3 -185 53 -207 103 -384 252 -487 409 -92 140 -137 274
-168 495 -8 62 -18 128 -21 146 -3 18 -1 32 5 32 22 0 40 50 60 165 11 66 21
147 22 181 l2 61 56 1 c74 2 161 25 244 65 37 18 67 32 67 31 0 -1 -9 -23 -20
-49 -11 -26 -20 -53 -20 -61 0 -26 49 -37 112 -26 198 36 366 226 469 530 16
47 29 94 29 105 0 18 1 18 33 -1 22 -15 36 -34 45 -64z m-1768 -478 c71 -23
359 -142 410 -169 8 -4 24 -32 36 -62 18 -48 59 -116 109 -186 13 -16 64 -308
65 -367 0 -14 -71 3 -135 33 -33 16 -87 49 -121 74 -80 61 -263 252 -341 355
-70 93 -161 249 -192 329 l-20 52 52 -16 c29 -8 90 -28 137 -43z m3326 12
c-20 -57 -125 -228 -206 -338 -171 -230 -403 -413 -592 -468 -63 -18 -112 -21
-103 -6 10 17 45 209 45 249 0 33 7 47 49 90 45 45 131 198 131 231 0 28 426
211 620 266 70 19 71 19 56 -24z m-3096 -872 c-8 -5 -19 -10 -25 -10 -5 0 -3
5 5 10 8 5 20 10 25 10 6 0 3 -5 -5 -10z m370 -30 c20 -6 21 -8 5 -8 -11 0
-29 3 -40 8 -25 11 1 11 35 0z m-355 -48 c-3 -3 -11 0 -18 7 -9 10 -8 11 6 5
10 -3 15 -9 12 -12z m172 -48 c-3 -3 -12 -4 -19 -1 -8 3 -5 6 6 6 11 1 17 -2
13 -5z m1914 -87 c-10 -9 -11 -8 -5 6 3 10 9 15 12 12 3 -3 0 -11 -7 -18z
m-1803 -38 c-6 -16 -12 -28 -14 -26 -5 5 13 57 20 57 3 0 0 -14 -6 -31z m1777
-8 c-8 -17 -19 -33 -25 -36 -5 -3 -1 10 11 29 25 43 36 48 14 7z m-1765 -96
c0 -5 -5 -3 -10 5 -5 8 -10 20 -10 25 0 6 5 3 10 -5 5 -8 10 -19 10 -25z m18
-40 c-3 -3 -9 2 -12 12 -6 14 -5 15 5 6 7 -7 10 -15 7 -18z m79 -22 c-3 -10
-5 -4 -5 12 0 17 2 24 5 18 2 -7 2 -21 0 -30z m1564 9 c-5 -10 -18 -25 -27
-33 -11 -9 -9 -2 6 19 26 35 36 42 21 14z m-1437 -18 c3 -8 2 -12 -4 -9 -6 3
-10 10 -10 16 0 14 7 11 14 -7z m107 -21 c13 -16 12 -17 -3 -4 -10 7 -18 15
-18 17 0 8 8 3 21 -13z m44 -43 c10 -11 16 -20 13 -20 -3 0 -13 9 -23 20 -10
11 -16 20 -13 20 3 0 13 -9 23 -20z m-25 -46 c0 -7 -58 25 -65 36 -3 5 10 1
29 -11 20 -12 36 -23 36 -25z m99 -21 c2 -2 -2 -3 -10 -3 -8 0 -20 10 -28 23
l-14 22 24 -20 c13 -11 26 -21 28 -22z m-256 -30 c-7 -2 -19 -2 -25 0 -7 3 -2
5 12 5 14 0 19 -2 13 -5z m1272 -150 l-1 -147 -94 -59 c-179 -113 -259 -187
-350 -329 l-37 -56 -48 96 c-40 79 -64 113 -133 182 -79 80 -84 86 -79 120 3
19 2 70 -2 113 -3 42 -5 77 -3 77 2 0 37 -16 76 -36 103 -50 183 -62 271 -40
88 22 240 101 330 170 39 30 70 55 71 55 0 1 0 -65 -1 -146z m365 133 c0 -2
-7 -7 -16 -10 -8 -3 -12 -2 -9 4 6 10 25 14 25 6z m-120 -20 c0 -2 -7 -7 -16
-10 -8 -3 -12 -2 -9 4 6 10 25 14 25 6z m-1680 -10 c0 -2 -8 -10 -17 -17 -16
-13 -17 -12 -4 4 13 16 21 21 21 13z m1760 -130 c0 -2 -8 -10 -17 -17 -16 -13
-17 -12 -4 4 13 16 21 21 21 13z m-136 -107 c-55 -38 -136 -93 -182 -120 -45
-28 -80 -55 -77 -60 4 -5 -3 -9 -14 -9 -11 0 -23 -4 -26 -10 -3 -5 1 -10 9
-10 9 0 16 -5 16 -10 0 -7 -6 -7 -20 0 -20 10 -60 -5 -60 -22 0 -5 -6 -8 -14
-8 -8 0 -18 -5 -22 -11 -5 -8 1 -10 20 -7 14 3 26 1 26 -4 0 -5 4 -7 9 -3 5 3
16 -2 25 -11 9 -8 22 -12 28 -8 10 5 10 4 1 -6 -10 -11 -16 -10 -34 6 -20 17
-22 17 -16 2 4 -10 2 -18 -3 -18 -6 0 -10 6 -10 14 0 20 -59 15 -93 -7 -15
-10 -27 -26 -27 -37 0 -11 -5 -18 -12 -15 -14 4 -98 -115 -97 -137 0 -7 5 -2
11 12 9 21 12 22 15 8 3 -11 13 -18 26 -17 16 1 17 3 5 6 -9 2 -19 11 -22 20
-4 10 -2 13 6 10 7 -3 21 -8 31 -12 10 -4 17 -3 17 4 0 6 -9 11 -20 11 -12 0
-20 7 -20 16 0 12 3 14 13 6 23 -19 94 -2 81 20 -4 6 1 8 15 3 16 -5 20 -3 15
10 -8 21 -39 15 -38 -7 2 -18 -22 -32 -31 -19 -3 5 -14 7 -25 4 -11 -3 -20 -1
-20 3 1 13 50 47 50 35 0 -7 10 -6 28 1 32 14 57 34 30 25 -20 -7 -48 1 -48
14 0 4 7 5 17 2 11 -4 14 -3 9 5 -4 7 -3 12 3 12 5 0 13 -5 16 -10 4 -6 15 -8
25 -5 11 3 20 0 24 -11 5 -12 2 -15 -10 -10 -11 4 -14 1 -12 -12 2 -9 11 -16
21 -16 9 1 17 -2 17 -7 0 -5 -9 -9 -20 -9 -11 0 -20 -7 -20 -16 0 -8 -5 -12
-11 -9 -11 8 -49 -22 -49 -38 0 -6 11 0 25 13 14 13 25 20 25 16 0 -5 7 -2 16
5 15 12 16 10 12 -23 -3 -33 -2 -35 14 -27 19 10 24 29 8 29 -5 0 -10 8 -9 18
0 10 3 12 6 5 2 -7 9 -13 15 -13 6 0 8 6 5 13 -3 8 -1 20 5 28 8 11 9 10 4 -5
-5 -15 -2 -18 19 -14 14 3 25 1 25 -3 0 -5 -9 -9 -19 -9 -10 0 -21 -7 -25 -15
-5 -13 -1 -13 27 -1 77 33 85 39 80 55 -4 12 -2 13 4 3 10 -13 18 -11 148 48
119 53 196 83 201 77 3 -2 -17 -12 -43 -22 -109 -41 -444 -202 -523 -251 -83
-51 -176 -144 -153 -151 7 -3 10 -10 7 -16 -11 -29 358 14 513 59 100 29 130
43 178 85 19 17 35 27 35 21 0 -15 -60 -63 -98 -79 -29 -12 -36 -33 -11 -33 6
0 7 5 4 10 -3 6 -4 10 -1 10 2 0 11 2 18 5 9 4 14 -2 15 -16 2 -27 23 -51 23
-27 0 12 6 15 22 10 14 -3 19 -2 14 6 -8 13 6 17 17 5 13 -13 67 -8 67 6 0 7
-6 11 -14 8 -10 -4 -13 -1 -9 9 3 7 0 14 -6 14 -6 0 -11 -7 -11 -15 0 -8 -4
-15 -10 -15 -16 0 -12 15 9 34 16 15 19 15 24 1 4 -8 12 -15 18 -15 9 0 9 4 0
14 -8 10 -9 16 -1 21 5 3 10 0 10 -7 0 -8 9 -14 19 -15 13 -1 18 3 14 13 -3 7
-9 11 -14 8 -5 -3 -9 -1 -9 4 0 5 11 10 25 10 22 0 24 -3 13 -16 -11 -13 -10
-15 5 -9 9 3 17 2 17 -2 0 -5 -7 -12 -16 -15 -9 -4 -14 -9 -10 -13 3 -3 15 2
26 12 18 17 20 17 20 1 0 -11 4 -15 13 -10 8 5 7 2 -2 -10 -11 -13 -16 -14
-22 -4 -6 8 -9 9 -9 2 0 -6 6 -17 14 -23 11 -9 16 -9 23 1 4 7 16 19 25 26 15
12 17 10 15 -20 -2 -25 -19 -53 -65 -108 -35 -41 -82 -97 -104 -125 l-40 -50
38 40 c22 23 77 85 124 138 80 92 115 118 139 102 28 -17 10 -63 -56 -141
-135 -160 -224 -268 -192 -233 19 19 61 66 94 104 33 38 78 90 101 115 23 25
53 64 68 88 14 23 30 42 34 41 42 -4 65 -43 31 -52 -24 -6 -24 2 -1 19 16 13
16 14 -2 8 -10 -4 -21 -2 -26 6 -5 8 -9 9 -14 1 -4 -6 -2 -11 5 -11 8 0 7 -5
-2 -17 -8 -10 -9 -14 -2 -10 6 4 14 3 17 -2 4 -5 17 -8 31 -7 13 2 22 -1 19
-6 -8 -13 17 -40 33 -34 16 7 43 -3 43 -16 0 -5 -4 -6 -10 -3 -11 7 -13 -37
-4 -73 6 -22 7 -22 32 -6 24 15 25 15 18 -1 -4 -13 -2 -16 9 -11 8 3 15 0 15
-6 0 -7 6 -3 14 8 12 15 17 17 27 7 7 -7 9 -13 5 -13 -5 0 -2 -7 5 -17 12 -14
12 -16 -1 -11 -8 3 -14 13 -14 22 1 9 -2 16 -7 16 -5 0 -9 -4 -9 -9 0 -5 -3
-17 -7 -27 -4 -10 -2 -15 3 -11 6 3 16 2 24 -3 13 -8 12 -12 -5 -24 -19 -13
-18 -14 8 -9 18 4 27 12 27 24 0 11 4 19 10 19 6 0 6 -9 0 -24 -14 -38 10 -39
146 -6 172 42 177 36 9 -10 -516 -142 -1031 -372 -1370 -615 -88 -62 -214
-182 -273 -258 l-45 -59 -106 104 c-58 58 -128 123 -156 144 -184 147 -544
350 -893 503 -121 53 -491 191 -557 208 -48 12 -49 12 -33 31 8 9 39 57 67
105 29 49 56 86 58 83 3 -3 1 -12 -6 -20 -16 -19 -112 -179 -109 -181 2 -1 29
-9 60 -18 40 -11 57 -12 55 -4 -1 7 10 11 26 11 17 -1 20 0 7 3 -30 7 -24 20
9 19 21 -1 27 -5 23 -16 -3 -8 -2 -12 3 -8 4 4 15 2 23 -5 10 -8 13 -8 9 -1
-8 13 19 27 34 18 5 -3 9 8 9 24 0 23 -4 28 -22 27 -12 -1 -24 -7 -26 -14 -3
-9 2 -11 19 -7 23 7 23 7 5 -8 -22 -18 -40 -21 -31 -6 3 6 1 10 -6 10 -7 0 -5
8 6 20 10 11 26 20 35 20 18 0 35 28 24 39 -4 3 -9 0 -11 -6 -3 -7 -10 -13
-16 -13 -6 0 -4 7 5 16 12 12 14 23 8 40 -7 18 -6 22 5 17 8 -3 13 -9 10 -13
-3 -4 2 -21 10 -36 8 -16 15 -24 15 -19 0 6 5 3 10 -5 8 -13 10 -12 11 5 1 11
3 27 3 35 1 9 10 14 24 13 27 -3 28 5 5 24 -16 13 -16 13 3 4 12 -6 24 -7 28
-3 4 3 4 -1 0 -11 -3 -10 -1 -17 5 -17 6 0 11 2 11 4 0 2 2 11 6 19 3 10 -4
16 -24 20 -16 3 -32 13 -35 21 -7 16 16 12 42 -8 10 -7 13 -7 9 -1 -4 6 -3 17
3 25 6 11 9 8 9 -12 0 -16 5 -28 11 -28 5 0 8 -4 4 -9 -3 -5 -1 -12 3 -15 5
-3 8 14 8 38 -1 24 -4 42 -8 40 -4 -2 -10 1 -14 7 -5 8 -3 9 6 4 10 -6 12 -3
8 13 -4 12 -2 25 3 28 5 3 9 -3 9 -13 1 -19 22 -53 35 -53 4 0 2 6 -4 14 -6 7
-8 22 -4 31 4 13 3 16 -5 11 -7 -4 -12 -2 -12 5 0 6 -6 17 -14 23 -13 9 -13
13 2 26 14 13 15 12 9 -2 -3 -9 1 -22 10 -29 8 -8 19 -22 23 -34 5 -14 8 -7 8
25 0 30 -3 38 -7 26 -6 -15 -9 -17 -16 -6 -8 14 33 52 47 44 5 -3 3 6 -4 21
-9 20 -9 28 1 38 10 9 11 8 5 -6 -4 -10 0 -25 9 -35 15 -18 15 -51 -1 -61 -12
-8 -22 -61 -11 -61 5 0 11 11 15 25 l6 25 17 -29 c16 -30 258 -311 267 -311 5
0 -105 132 -200 240 -66 75 -74 95 -51 120 10 11 26 20 35 20 11 0 73 -65 149
-155 73 -85 137 -158 143 -161 6 -4 -13 22 -43 58 -30 36 -81 98 -114 138 -33
41 -77 92 -97 114 -47 49 -48 55 -5 22 36 -28 47 -32 47 -17 0 5 -9 13 -20 16
-28 9 -25 21 10 34 24 8 30 7 30 -5 0 -7 5 -14 11 -14 6 0 8 7 5 16 -3 9 -6
20 -6 25 0 4 -8 6 -17 3 -15 -5 -16 -4 -3 5 21 15 30 14 30 -3 0 -18 27 -46
43 -46 7 0 3 7 -7 15 -19 14 -19 15 -1 35 10 11 16 22 14 24 -2 2 -41 22 -86
45 -46 23 -83 43 -83 46 0 3 21 -5 48 -19 114 -57 301 -133 407 -165 113 -34
363 -82 455 -87 47 -3 98 -10 114 -15 39 -12 43 -12 50 7 9 24 -18 67 -75 118
-38 34 -114 77 -283 160 -127 62 -246 119 -264 126 -18 7 -31 15 -29 17 5 5
188 -75 202 -88 14 -14 25 -11 25 6 0 8 -5 15 -12 15 -6 0 -9 2 -6 5 12 12 36
-7 31 -25 -4 -15 2 -21 23 -26 16 -4 40 -15 54 -25 25 -17 26 -17 26 2 0 15
-5 17 -21 13 -17 -6 -18 -5 -6 9 12 15 16 15 34 2 15 -11 24 -12 34 -3 9 7 13
7 13 -1 0 -10 -13 -15 -32 -12 -13 2 -9 -17 8 -33 20 -20 30 -20 38 0 4 12 1
14 -14 9 -11 -4 -20 -2 -20 3 0 10 32 22 59 22 10 0 11 -3 3 -13 -13 -16 -1
-39 15 -29 17 11 4 50 -18 57 -15 5 -16 9 -6 19 9 10 19 11 41 3 23 -8 31 -7
34 2 4 11 6 10 13 0 7 -11 9 -11 9 2 0 20 -24 42 -35 31 -4 -4 -4 3 -1 15 8
26 -9 39 -29 23 -12 -10 -18 -10 -30 0 -15 12 -12 30 5 30 5 0 6 -8 3 -17 -7
-17 -5 -17 17 -3 33 21 39 20 83 -14 48 -37 59 -28 13 10 -93 78 -110 91 -223
165 -29 19 -53 38 -53 42 0 4 19 -6 43 -23 23 -17 69 -48 102 -70 106 -69 192
-147 225 -206 39 -68 85 -201 95 -274 9 -69 17 -86 32 -68 6 7 32 63 58 123
93 216 198 321 490 493 39 22 104 66 145 96 41 31 79 56 84 56 4 0 -36 -32
-90 -71z m-1248 -1 l29 -32 -32 25 c-18 13 -32 27 -32 32 -1 12 4 8 35 -25z
m-442 -108 c21 -24 17 -22 -11 6 -24 24 -43 49 -43 56 0 7 6 4 12 -7 6 -11 25
-36 42 -55z m-210 -48 c-18 -15 -34 -34 -37 -42 -4 -12 -6 -12 -6 2 -1 9 14
28 32 42 43 34 50 33 11 -2z m346 -48 c0 -2 -9 0 -20 6 -11 6 -20 13 -20 16 0
2 9 0 20 -6 11 -6 20 -13 20 -16z m-122 -49 c19 -9 32 -19 29 -21 -7 -8 -79
40 -102 67 -17 21 -16 21 10 -2 17 -15 45 -34 63 -44z m612 45 c0 -5 -2 -10
-4 -10 -3 0 -8 5 -11 10 -3 6 -1 10 4 10 6 0 11 -4 11 -10z m1355 1 c-6 -5
-21 -11 -35 -15 -21 -5 -20 -3 5 9 35 17 42 18 30 6z m-1795 -16 c14 -8 21
-14 15 -14 -5 0 -21 6 -35 14 -14 8 -20 14 -15 14 6 0 21 -6 35 -14z m1265 5
c3 -6 -1 -7 -9 -4 -18 7 -21 14 -7 14 6 0 13 -4 16 -10z m-843 -19 c7 11 9 11
6 1 -5 -17 -23 -17 -24 0 -1 9 1 8 4 -1 3 -12 5 -12 14 0z m778 -2 c0 -6 -4
-7 -10 -4 -5 3 -10 11 -10 16 0 6 5 7 10 4 6 -3 10 -11 10 -16z m135 1 c-3 -5
-16 -15 -28 -21 -19 -9 -19 -8 3 10 28 23 34 26 25 11z m385 0 c-8 -5 -19 -10
-25 -10 -5 0 -3 5 5 10 8 5 20 10 25 10 6 0 3 -5 -5 -10z m-1266 -25 c3 -8 1
-15 -4 -15 -6 0 -10 7 -10 15 0 8 2 15 4 15 2 0 6 -7 10 -15z m1543 9 c-3 -3
-12 -4 -19 -1 -8 3 -5 6 6 6 11 1 17 -2 13 -5z m-770 -10 c-3 -3 -12 -4 -19
-1 -8 3 -5 6 6 6 11 1 17 -2 13 -5z m-852 -14 c-3 -5 -12 -10 -18 -10 -7 0 -6
4 3 10 19 12 23 12 15 0z m38 -4 c4 -10 1 -13 -8 -9 -8 3 -12 9 -9 14 7 12 11
11 17 -5z m117 5 c0 -5 -5 -11 -11 -13 -8 -3 -6 -10 5 -20 9 -9 13 -19 9 -21
-11 -7 -33 19 -25 28 4 4 -4 5 -18 1 -25 -6 -25 -6 -2 5 12 7 22 16 22 21 0 4
5 8 10 8 6 0 10 -4 10 -9z m810 5 c0 -2 -7 -7 -16 -10 -8 -3 -12 -2 -9 4 6 10
25 14 25 6z m-1323 -77 c14 -5 23 -12 21 -15 -6 -6 -148 61 -163 77 -5 6 18
-3 53 -21 35 -17 75 -35 89 -41z m319 55 c18 -14 18 -14 -6 -3 -31 14 -36 19
-24 19 6 0 19 -7 30 -16z m1109 6 c8 -13 -5 -13 -25 0 -13 8 -13 10 2 10 9 0
20 -4 23 -10z m-1586 -100 c44 -17 56 -18 64 -8 6 9 7 8 3 -4 -3 -10 0 -19 7
-20 7 0 17 -2 22 -2 6 -1 20 -7 32 -14 29 -16 33 -15 33 7 0 17 3 18 25 8 14
-7 23 -18 20 -24 -2 -7 0 -13 6 -13 7 0 9 10 5 23 -4 18 -1 23 16 24 16 2 18
-1 9 -10 -14 -14 -14 -37 0 -37 5 0 7 4 4 10 -3 6 1 7 9 4 21 -8 10 -24 -17
-25 -20 0 -21 -1 -3 -8 24 -9 66 -2 66 11 0 5 -5 6 -11 2 -7 -4 -10 -1 -7 7 3
8 11 13 17 11 6 -1 11 2 11 6 0 5 -27 21 -61 37 -33 16 -56 31 -51 33 6 2 38
-11 71 -27 33 -17 94 -44 136 -61 90 -36 280 -133 245 -125 -14 3 -79 14 -145
26 -66 11 -160 31 -210 45 -138 39 -424 163 -480 209 -11 9 14 -2 55 -24 41
-22 99 -49 129 -61z m601 86 c0 -2 -7 -7 -16 -10 -8 -3 -12 -2 -9 4 6 10 25
14 25 6z m690 0 c0 -2 -7 -6 -15 -10 -8 -3 -15 -1 -15 4 0 6 7 10 15 10 8 0
15 -2 15 -4z m-810 -26 c0 -5 -7 -7 -15 -4 -8 4 -15 8 -15 10 0 2 7 4 15 4 8
0 15 -4 15 -10z m121 -3 c-13 -13 -61 -16 -68 -4 -3 6 -1 7 5 3 7 -4 12 -4 12
1 0 4 13 8 30 8 16 0 25 -4 21 -8z m723 -2 c11 -8 17 -18 13 -21 -3 -3 -16 3
-28 15 -26 24 -14 28 15 6z m206 11 c0 -3 -4 -8 -10 -11 -5 -3 -10 -1 -10 4 0
6 5 11 10 11 6 0 10 -2 10 -4z m400 -6 c-8 -5 -19 -10 -25 -10 -5 0 -3 5 5 10
8 5 20 10 25 10 6 0 3 -5 -5 -10z m-2325 -20 c-3 -5 -16 -15 -28 -21 -19 -9
-19 -8 3 10 28 23 34 26 25 11z m1892 -5 c0 -8 -4 -15 -9 -15 -10 0 -11 14 -1
23 9 10 10 9 10 -8z m305 -24 c-51 -20 -89 -41 -85 -46 4 -4 3 -5 -3 -2 -6 4
-49 -8 -94 -26 -71 -27 -84 -36 -85 -56 -1 -13 -10 -30 -20 -37 -16 -12 -17
-14 -3 -14 9 0 20 5 23 10 4 6 16 8 28 5 20 -5 20 -5 6 7 -12 10 -13 16 -5 24
14 13 48 15 40 2 -3 -4 -12 -8 -20 -8 -8 0 -12 -4 -9 -10 3 -5 15 -10 26 -10
11 0 17 4 14 10 -4 6 1 7 12 3 15 -6 16 -4 5 9 -10 13 -10 17 4 22 10 4 22 2
28 -4 8 -8 6 -9 -8 -4 -14 5 -17 3 -14 -7 3 -8 16 -13 34 -12 16 1 -5 -9 -46
-21 -109 -35 -297 -76 -360 -81 -51 -3 -54 -3 -35 11 11 9 38 25 60 37 56 29
567 235 585 236 8 0 -27 -17 -78 -38z m-365 13 c-3 -3 -12 -4 -19 -1 -8 3 -5
6 6 6 11 1 17 -2 13 -5z m-77 -19 c0 -8 -4 -15 -10 -15 -5 0 -7 7 -4 15 4 8 8
15 10 15 2 0 4 -7 4 -15z m-1861 -52 c-56 -59 -116 -137 -158 -205 -12 -21
-25 -38 -28 -38 -7 0 33 64 81 130 38 53 145 170 155 170 3 0 -20 -26 -50 -57z
m648 11 c-3 -3 -12 -4 -19 -1 -8 3 -5 6 6 6 11 1 17 -2 13 -5z m128 -4 c3 -5
-1 -10 -9 -10 -9 0 -16 5 -16 10 0 6 4 10 9 10 6 0 13 -4 16 -10z m-495 -4 c0
-3 -4 -8 -10 -11 -5 -3 -10 -1 -10 4 0 6 5 11 10 11 6 0 10 -2 10 -4z m2940
-76 c6 -11 8 -20 6 -20 -3 0 -10 9 -16 20 -6 11 -8 20 -6 20 3 0 10 -9 16 -20z
m-951 6 c-2 -2 -17 -6 -34 -10 -22 -5 -26 -4 -15 4 14 9 59 15 49 6z m241 -26
c0 -5 -5 -10 -11 -10 -5 0 -7 5 -4 10 3 6 8 10 11 10 2 0 4 -4 4 -10z m48 -31
c-3 -8 -7 -3 -11 10 -4 17 -3 21 5 13 5 -5 8 -16 6 -23z m-2343 11 c3 -5 2
-10 -4 -10 -5 0 -13 5 -16 10 -3 6 -2 10 4 10 5 0 13 -4 16 -10z m28 -10 c-3
-10 -11 -24 -19 -31 -10 -8 -10 -3 2 20 18 35 24 40 17 11z m2182 10 c-3 -5
-12 -10 -18 -10 -7 0 -6 4 3 10 19 12 23 12 15 0z m-103 -42 c-6 -6 -7 0 -4
19 5 21 7 23 10 9 2 -10 0 -22 -6 -28z m179 25 c11 -15 11 -16 -1 -5 -19 16
-33 15 -27 -2 4 -10 1 -13 -9 -9 -11 4 -12 9 -3 19 15 18 24 18 40 -3z m39 2
c0 -12 -19 -12 -23 0 -4 9 -1 12 9 8 7 -3 14 -7 14 -8z m77 9 c-3 -3 -12 -4
-19 -1 -8 3 -5 6 6 6 11 1 17 -2 13 -5z m-331 -39 c-11 -8 -23 -15 -28 -15 -4
0 -8 -7 -8 -15 0 -8 -4 -15 -10 -15 -17 0 2 30 29 45 34 18 41 18 17 0z m214
-5 c0 -5 -5 -10 -11 -10 -5 0 -7 5 -4 10 3 6 8 10 11 10 2 0 4 -4 4 -10z m40
0 c8 -5 11 -12 7 -16 -4 -4 -15 0 -24 9 -18 18 -8 23 17 7z m-240 -19 c0 -5
-9 -11 -20 -14 -11 -3 -20 -1 -20 3 0 5 8 11 18 13 9 3 18 5 20 6 1 0 2 -3 2
-8z m333 -10 c4 -1 7 -6 7 -12 0 -6 -5 -7 -12 -2 -7 4 -24 6 -37 4 -13 -1 -21
1 -18 6 4 6 16 9 29 7 13 -1 26 -3 31 -3z m688 -46 l10 -20 -16 20 c-9 11 -21
29 -26 40 l-10 20 16 -20 c9 -11 21 -29 26 -40z m-761 31 c0 -15 -18 -31 -26
-23 -7 7 7 37 17 37 5 0 9 -6 9 -14z m100 -16 c0 -5 -5 -10 -11 -10 -5 0 -7 5
-4 10 3 6 8 10 11 10 2 0 4 -4 4 -10z m40 -10 c0 -5 -7 -7 -15 -4 -8 4 -15 8
-15 10 0 2 7 4 15 4 8 0 15 -4 15 -10z m-2713 -32 c-3 -8 -6 -5 -6 6 -1 11 2
17 5 13 3 -3 4 -12 1 -19z m2801 -13 c-3 -3 -9 2 -12 12 -6 14 -5 15 5 6 7 -7
10 -15 7 -18z m599 -70 c21 -42 1 -19 -26 30 -13 22 -15 31 -6 20 9 -11 23
-33 32 -50z m-3410 49 c-3 -3 -12 -4 -19 -1 -8 3 -5 6 6 6 11 1 17 -2 13 -5z
m-4 -35 c5 -3 2 -9 -5 -12 -9 -3 -14 3 -15 15 -1 11 1 16 5 12 4 -5 11 -12 15
-15z m2797 11 c0 -5 -2 -10 -4 -10 -3 0 -8 5 -11 10 -3 6 -1 10 4 10 6 0 11
-4 11 -10z m27 -12 c-3 -8 -6 -5 -6 6 -1 11 2 17 5 13 3 -3 4 -12 1 -19z m40
-40 c-3 -8 -6 -5 -6 6 -1 11 2 17 5 13 3 -3 4 -12 1 -19z m-2982 -28 c-3 -5
-12 -10 -18 -10 -7 0 -6 4 3 10 19 12 23 12 15 0z m2974 -13 c13 4 13 2 -2 -7
-19 -12 -37 -6 -37 13 0 8 3 8 11 0 6 -6 19 -9 28 -6z m39 -22 c-3 -3 -9 2
-12 12 -6 14 -5 15 5 6 7 -7 10 -15 7 -18z m-3142 -22 c-10 -10 -19 5 -10 18
6 11 8 11 12 0 2 -7 1 -15 -2 -18z m3294 18 c0 -5 -7 -12 -16 -15 -14 -5 -15
-4 -4 9 14 17 20 19 20 6z m387 -17 c-3 -3 -12 -4 -19 -1 -8 3 -5 6 6 6 11 1
17 -2 13 -5z m-3627 -29 c-7 -8 -16 -15 -21 -15 -5 0 -1 9 8 20 9 11 19 17 21
15 3 -3 -1 -11 -8 -20z m3583 18 c-7 -2 -19 -2 -25 0 -7 3 -2 5 12 5 14 0 19
-2 13 -5z m-3623 -13 c0 -5 -5 -10 -11 -10 -5 0 -7 5 -4 10 3 6 8 10 11 10 2
0 4 -4 4 -10z m3567 4 c-3 -3 -12 -4 -19 -1 -8 3 -5 6 6 6 11 1 17 -2 13 -5z
m-40 -10 c-3 -3 -12 -4 -19 -1 -8 3 -5 6 6 6 11 1 17 -2 13 -5z m-3792 -63
c281 -76 408 -117 625 -204 397 -158 750 -352 1015 -557 108 -84 230 -204 221
-219 -3 -5 -25 -5 -52 0 -98 18 -123 29 -151 65 -56 72 -224 159 -593 306
-368 147 -855 304 -1257 403 l-151 37 49 111 c27 61 49 112 49 114 0 8 43 -2
245 -56z m3495 39 c0 -5 -5 -10 -11 -10 -5 0 -7 5 -4 10 3 6 8 10 11 10 2 0 4
-4 4 -10z m553 -72 c41 -71 107 -198 102 -198 -21 0 -481 -102 -639 -142 -388
-97 -829 -251 -1111 -388 -133 -64 -170 -87 -217 -134 -59 -59 -129 -91 -186
-84 -26 3 -23 8 63 97 329 342 962 656 1665 826 85 21 178 43 205 50 82 21 90
20 118 -27z m-2908 -718 c13 -6 15 -9 5 -9 -8 0 -22 4 -30 9 -18 12 -2 12 25
0z m74 -36 c14 -12 -19 -1 -35 12 -18 14 -18 14 6 3 14 -6 27 -13 29 -15z m71
-29 c14 -8 21 -14 15 -14 -5 0 -21 6 -35 14 -14 8 -20 14 -15 14 6 0 21 -6 35
-14z m1235 -5 c-3 -5 -12 -10 -18 -10 -7 0 -6 4 3 10 19 12 23 12 15 0z
m-1175 -20 c8 -5 11 -10 5 -10 -5 0 -17 5 -25 10 -8 5 -10 10 -5 10 6 0 17 -5
25 -10z m103 -51 c26 -13 47 -27 47 -32 0 -4 -18 4 -40 18 -22 14 -43 25 -48
25 -4 0 -17 7 -28 16 -19 15 -19 15 1 6 11 -4 41 -19 68 -33z m976 27 c-2 -2
-15 -9 -29 -15 -24 -11 -24 -11 -6 3 16 13 49 24 35 12z m-879 -148 c0 -12 -3
-18 -7 -14 -10 10 -11 46 -1 40 4 -3 8 -15 8 -26z m124 -43 c-4 -8 -8 -15 -10
-15 -2 0 -4 7 -4 15 0 8 4 15 10 15 5 0 7 -7 4 -15z m443 -11 c-3 -3 -12 -4
-19 -1 -8 3 -5 6 6 6 11 1 17 -2 13 -5z m-40 -10 c-3 -3 -12 -4 -19 -1 -8 3
-5 6 6 6 11 1 17 -2 13 -5z m-217 -12 c0 -5 -13 -7 -30 -4 -16 2 -30 6 -30 8
0 2 14 4 30 4 17 0 30 -4 30 -8z m173 1 c-7 -2 -19 -2 -25 0 -7 3 -2 5 12 5
14 0 19 -2 13 -5z m-356 -50 c-3 -10 -5 -2 -5 17 0 19 2 27 5 18 2 -10 2 -26
0 -35z m243 30 c0 -12 -3 -14 -8 -7 -4 7 -16 14 -27 17 -15 4 -14 5 8 6 20 1
27 -4 27 -16z m-233 -105 c-3 -8 -6 -5 -6 6 -1 11 2 17 5 13 3 -3 4 -12 1 -19z
m590 -30 c-3 -7 -5 -2 -5 12 0 14 2 19 5 13 2 -7 2 -19 0 -25z m-580 -70 c-3
-8 -6 -5 -6 6 -1 11 2 17 5 13 3 -3 4 -12 1 -19z"/>
<path d="M5371 7234 c0 -11 3 -14 6 -6 3 7 2 16 -1 19 -3 4 -6 -2 -5 -13z"/>
<path d="M4488 6519 c-27 -8 -38 -17 -38 -30 0 -11 7 -19 18 -20 9 -1 59 -3
109 -5 73 -2 108 -9 165 -32 97 -39 124 -30 71 23 -52 51 -100 68 -198 71 -49
2 -107 -2 -127 -7z"/>
<path d="M5465 6507 c-56 -27 -98 -68 -93 -90 2 -12 16 -9 73 15 65 27 76 28
165 24 52 -3 104 -7 115 -8 12 -2 21 4 23 15 5 26 -74 58 -161 63 -62 4 -79 2
-122 -19z"/>
<path d="M4993 6458 c-4 -7 -8 -74 -8 -148 -1 -125 -4 -141 -33 -224 -37 -105
-40 -146 -11 -192 43 -70 152 -100 195 -53 23 25 12 34 -54 44 -64 9 -104 51
-95 97 3 18 14 49 24 68 37 75 52 149 46 234 -5 83 -32 186 -47 186 -5 0 -12
-6 -17 -12z"/>
<path d="M4650 6353 c-48 -18 -77 -98 -65 -178 14 -99 103 -141 159 -75 83 99
11 292 -94 253z"/>
<path d="M5468 6343 c-30 -35 -41 -69 -42 -130 -1 -68 19 -107 67 -131 33 -16
69 -1 100 39 39 54 31 165 -16 217 -26 28 -87 30 -109 5z"/>
<path d="M5355 5720 c-125 -61 -236 -71 -452 -44 -45 6 -54 4 -60 -11 -9 -24
40 -65 125 -107 55 -27 74 -32 140 -31 125 1 274 71 330 156 25 38 26 40 7 53
-23 17 -18 18 -90 -16z"/>
<path d="M3590 6666 c0 -20 49 -56 130 -96 111 -55 114 -59 141 -157 20 -75
29 -94 66 -130 50 -51 76 -57 63 -15 -4 15 -15 44 -24 64 -9 21 -16 51 -16 69
l0 31 45 -48 c45 -49 53 -63 77 -143 14 -47 57 -89 78 -76 25 16 -11 151 -58
219 -62 90 -341 262 -471 291 -24 5 -31 3 -31 -9z"/>
<path d="M6650 6631 c-119 -48 -289 -146 -355 -204 -59 -52 -98 -119 -121
-207 -19 -73 -11 -89 32 -67 32 17 62 63 93 147 13 34 37 72 61 95 l40 39 0
-29 c0 -17 -14 -59 -30 -93 -17 -35 -30 -65 -30 -67 0 -2 21 8 46 22 25 14 59
44 75 66 27 37 35 59 53 140 5 23 24 36 119 83 61 31 122 65 135 77 54 50 8
49 -118 -2z"/>
<path d="M6285 6230 c-3 -6 1 -7 9 -4 18 7 21 14 7 14 -6 0 -13 -4 -16 -10z"/>
<path d="M4861 4772 c-1 -18 26 -45 38 -38 5 3 12 -1 15 -10 4 -12 2 -15 -9
-10 -10 3 -15 -1 -15 -13 0 -14 -6 -17 -23 -14 -14 3 -29 -2 -36 -11 -16 -19
-1 -22 17 -4 9 9 15 9 23 1 13 -13 42 -6 33 8 -3 5 -1 9 5 9 5 0 13 9 16 20 3
11 12 20 19 20 17 0 39 -47 26 -55 -6 -3 -15 -15 -21 -26 -9 -18 -8 -19 10 -7
11 6 18 15 15 19 -2 4 2 9 10 11 10 2 8 12 -11 41 -19 30 -27 36 -37 28 -10
-8 -17 -7 -26 4 -7 8 -18 15 -25 15 -8 0 -16 6 -18 13 -4 9 -6 9 -6 -1z"/>
<path d="M4920 4670 c0 -5 5 -10 10 -10 6 0 10 5 10 10 0 6 -4 10 -10 10 -5 0
-10 -4 -10 -10z"/>
<path d="M4845 4650 c-3 -5 1 -10 10 -10 9 0 13 5 10 10 -3 6 -8 10 -10 10 -2
0 -7 -4 -10 -10z"/>
<path d="M4904 4641 c4 -5 1 -12 -4 -14 -6 -3 -5 -4 2 -3 15 3 23 26 8 26 -6
0 -9 -4 -6 -9z"/>
<path d="M4990 4625 c0 -9 6 -12 15 -9 8 4 12 10 9 15 -8 14 -24 10 -24 -6z"/>
<path d="M4850 4620 c0 -5 5 -10 11 -10 5 0 7 5 4 10 -3 6 -8 10 -11 10 -2 0
-4 -4 -4 -10z"/>
<path d="M4908 4593 c7 -3 16 -2 19 1 4 3 -2 6 -13 5 -11 0 -14 -3 -6 -6z"/>
<path d="M5405 4591 c-6 -11 13 -26 22 -17 4 3 1 6 -6 6 -7 0 -9 5 -6 10 3 6
4 10 1 10 -3 0 -7 -4 -11 -9z"/>
<path d="M4871 4576 c-9 -11 -9 -16 1 -22 7 -4 10 -4 6 1 -4 4 -3 14 3 22 6 7
9 13 6 13 -2 0 -10 -6 -16 -14z"/>
<path d="M5326 4562 c-2 -4 -1 -14 4 -22 7 -11 9 -9 7 8 -1 24 -3 26 -11 14z"/>
<path d="M5350 4563 c1 -13 30 -48 30 -36 0 7 -5 15 -10 18 -6 4 -8 11 -5 16
4 5 1 9 -4 9 -6 0 -11 -3 -11 -7z"/>
<path d="M4140 4540 c8 -5 20 -10 25 -10 6 0 3 5 -5 10 -8 5 -19 10 -25 10 -5
0 -3 -5 5 -10z"/>
<path d="M4096 4531 c-8 -12 21 -34 34 -26 5 3 10 11 10 17 0 6 -7 5 -17 -3
-15 -12 -16 -12 -10 4 6 17 -7 24 -17 8z"/>
<path d="M4146 4505 c-3 -9 0 -15 9 -15 9 0 12 6 9 15 -4 8 -7 15 -9 15 -2 0
-5 -7 -9 -15z"/>
<path d="M4204 4505 c-4 -8 -10 -12 -15 -9 -5 3 -9 0 -9 -5 0 -18 19 -12 30 9
6 11 8 20 5 20 -3 0 -8 -7 -11 -15z"/>
<path d="M4222 4490 c-10 -16 -10 -20 0 -18 14 3 28 18 28 31 0 14 -15 7 -28
-13z"/>
<path d="M5217 4499 c7 -7 15 -10 18 -7 3 3 -2 9 -12 12 -14 6 -15 5 -6 -5z"/>
<path d="M3995 4490 c-3 -5 1 -10 9 -10 9 0 16 5 16 10 0 6 -4 10 -9 10 -6 0
-13 -4 -16 -10z"/>
<path d="M4285 4480 c3 -5 8 -10 11 -10 2 0 4 5 4 10 0 6 -5 10 -11 10 -5 0
-7 -4 -4 -10z"/>
<path d="M4020 4460 c0 -5 5 -10 11 -10 5 0 7 5 4 10 -3 6 -8 10 -11 10 -2 0
-4 -4 -4 -10z"/>
<path d="M4060 4460 c-9 -6 -10 -10 -3 -10 6 0 15 5 18 10 8 12 4 12 -15 0z"/>
<path d="M4325 4460 c3 -5 11 -10 16 -10 6 0 7 5 4 10 -3 6 -11 10 -16 10 -6
0 -7 -4 -4 -10z"/>
<path d="M6056 4433 c-9 -10 -7 -43 3 -43 11 0 21 39 11 45 -4 2 -10 2 -14 -2z"/>
<path d="M4045 4420 c-3 -5 -1 -10 4 -10 6 0 11 5 11 10 0 6 -2 10 -4 10 -3 0
-8 -4 -11 -10z"/>
<path d="M4337 4413 c-4 -3 -7 -11 -7 -17 0 -6 5 -5 12 2 6 6 9 14 7 17 -3 3
-9 2 -12 -2z"/>
<path d="M5870 4390 c-9 -6 -10 -10 -3 -10 6 0 15 5 18 10 8 12 4 12 -15 0z"/>
<path d="M5960 4365 c0 -8 2 -15 4 -15 2 0 6 7 10 15 3 8 1 15 -4 15 -6 0 -10
-7 -10 -15z"/>
<path d="M5995 4371 c-3 -5 -1 -12 5 -16 5 -3 10 1 10 9 0 18 -6 21 -15 7z"/>
<path d="M6033 4363 c-3 -10 -8 -22 -11 -27 -3 -5 0 -6 5 -3 11 7 25 47 17 47
-3 0 -7 -8 -11 -17z"/>
<path d="M6060 4370 c0 -5 5 -10 10 -10 6 0 10 5 10 10 0 6 -4 10 -10 10 -5 0
-10 -4 -10 -10z"/>
<path d="M3830 4352 c0 -5 7 -9 15 -9 8 0 12 4 9 9 -3 4 -9 8 -15 8 -5 0 -9
-4 -9 -8z"/>
<path d="M6338 4283 c6 -3 10 -8 8 -12 -7 -11 12 -36 21 -28 4 5 1 12 -7 17
-13 8 -12 10 3 10 9 0 17 4 17 9 0 5 -12 8 -27 8 -16 0 -22 -2 -15 -4z"/>
<path d="M4665 4263 c11 -3 27 -10 35 -17 13 -10 13 -9 1 7 -7 9 -23 16 -35
16 -20 -1 -20 -2 -1 -6z"/>
<path d="M5551 4266 c2 -2 15 -9 29 -15 24 -11 24 -11 6 3 -16 13 -49 24 -35
12z"/>
<path d="M6296 4254 c-5 -14 -4 -15 9 -4 17 14 19 20 6 20 -5 0 -12 -7 -15
-16z"/>
<path d="M6387 4256 c-6 -15 1 -26 15 -26 11 0 10 27 -1 34 -5 3 -11 0 -14 -8z"/>
<path d="M6427 4253 c-10 -9 -8 -33 2 -33 5 0 11 9 14 20 5 20 -3 26 -16 13z"/>
<path d="M3698 4243 c7 -3 16 -2 19 1 4 3 -2 6 -13 5 -11 0 -14 -3 -6 -6z"/>
<path d="M3805 4240 c-3 -6 1 -7 9 -4 18 7 21 14 7 14 -6 0 -13 -4 -16 -10z"/>
<path d="M5602 4210 c0 -14 2 -19 5 -12 2 6 2 18 0 25 -3 6 -5 1 -5 -13z"/>
<path d="M6360 4219 c0 -5 5 -7 10 -4 6 3 10 8 10 11 0 2 -4 4 -10 4 -5 0 -10
-5 -10 -11z"/>
<path d="M6320 4209 c0 -5 5 -7 10 -4 6 3 10 8 10 11 0 2 -4 4 -10 4 -5 0 -10
-5 -10 -11z"/>
<path d="M3610 4190 c0 -5 5 -10 10 -10 6 0 10 5 10 10 0 6 -4 10 -10 10 -5 0
-10 -4 -10 -10z"/>
<path d="M6360 4189 c0 -5 5 -7 10 -4 6 3 10 8 10 11 0 2 -4 4 -10 4 -5 0 -10
-5 -10 -11z"/>
<path d="M3611 4144 c0 -11 3 -14 6 -6 3 7 2 16 -1 19 -3 4 -6 -2 -5 -13z"/>
<path d="M6507 4126 c-4 -10 -1 -13 9 -9 7 3 14 9 14 14 0 14 -17 10 -23 -5z"/>
<path d="M5959 4083 l-24 -28 28 24 c15 14 27 26 27 28 0 8 -8 1 -31 -24z"/>
<path d="M3488 4083 c7 -3 16 -2 19 1 4 3 -2 6 -13 5 -11 0 -14 -3 -6 -6z"/>
<path d="M6565 4050 c-25 -11 1 -11 35 0 20 6 21 8 5 8 -11 0 -29 -3 -40 -8z"/>
<path d="M4340 4600 c0 -5 5 -10 10 -10 6 0 10 5 10 10 0 6 -4 10 -10 10 -5 0
-10 -4 -10 -10z"/>
<path d="M4515 4590 c3 -5 13 -10 21 -10 8 0 14 -4 14 -10 0 -5 7 -7 16 -3 12
4 8 9 -16 19 -39 17 -43 17 -35 4z"/>
<path d="M4493 4579 c15 -9 16 -13 5 -27 -12 -15 -11 -16 5 -3 13 10 15 17 6
27 -6 8 -17 14 -23 14 -6 0 -3 -5 7 -11z"/>
<path d="M4470 4560 c-9 -6 -10 -10 -3 -10 6 0 15 5 18 10 8 12 4 12 -15 0z"/>
<path d="M5625 4529 c-22 -10 -30 -16 -17 -13 12 3 22 1 22 -4 0 -6 7 -13 16
-16 8 -3 13 -2 10 3 -3 4 6 13 19 19 14 7 25 16 25 22 0 15 -17 12 -24 -5 -3
-8 -11 -15 -17 -15 -8 0 -8 4 1 15 15 18 15 18 -35 -6z"/>
<path d="M5547 4494 c-16 -9 -26 -18 -23 -22 4 -3 12 0 18 6 17 17 31 15 24
-3 -3 -8 -1 -15 4 -15 5 0 9 11 8 25 -1 14 -3 25 -3 25 0 -1 -13 -8 -28 -16z"/>
<path d="M5605 4480 c-13 -6 -15 -9 -5 -9 8 0 22 4 30 9 18 12 2 12 -25 0z"/>
<path d="M927 1659 c-14 -8 -16 -14 -7 -25 22 -26 2 -560 -24 -635 -17 -50 -7
-59 69 -59 75 0 92 9 75 40 -13 23 -13 264 -1 400 l6 75 32 -80 c17 -44 54
-144 83 -222 58 -159 69 -179 94 -170 19 8 18 6 102 242 79 221 85 235 94 235
13 0 23 -446 10 -470 -20 -38 2 -50 91 -50 82 0 97 7 80 39 -27 49 -54 579
-33 639 6 17 7 34 3 37 -5 2 -47 8 -95 11 -95 8 -111 2 -121 -47 -15 -65 -124
-363 -128 -349 -23 73 -132 360 -143 378 -13 20 -22 22 -92 22 -42 0 -85 -5
-95 -11z"/>
<path d="M1942 1656 c-5 -6 -15 -33 -21 -61 -18 -72 -124 -424 -161 -530 -17
-49 -33 -98 -36 -107 -6 -16 1 -18 64 -18 85 0 107 6 91 26 -13 16 -8 94 10
137 l11 28 107 -3 108 -3 15 -30 c8 -16 15 -57 16 -90 l1 -60 83 -3 c46 -2 87
1 92 6 6 6 2 25 -11 49 -11 22 -52 143 -90 269 -39 126 -83 267 -98 314 l-28
85 -72 1 c-44 1 -76 -3 -81 -10z m107 -294 c17 -57 33 -107 36 -113 4 -5 -27
-9 -74 -9 -45 0 -81 3 -81 7 0 24 74 233 81 226 4 -4 21 -54 38 -111z"/>
<path d="M2435 1657 c-14 -11 -15 -17 -6 -35 16 -30 15 -584 -1 -629 -16 -44
-3 -53 72 -53 72 0 90 11 71 42 -11 18 -16 72 -18 228 -3 190 -3 204 12 185 9
-11 75 -114 147 -230 71 -115 135 -213 141 -218 7 -4 32 -6 57 -5 l45 3 5 335
c3 184 9 345 14 357 7 20 4 21 -51 25 -32 2 -68 1 -80 -4 -21 -7 -22 -9 -7
-43 11 -28 14 -75 12 -223 l-3 -187 -134 223 c-73 123 -138 225 -145 227 -39
12 -114 13 -131 2z"/>
<path d="M3122 1658 c-17 -9 -21 -16 -15 -32 8 -22 10 -626 3 -661 -5 -18 1
-20 63 -23 85 -4 101 6 82 51 -9 22 -14 89 -15 217 -1 102 -2 189 -1 194 1 6
39 -51 85 -125 225 -358 211 -339 255 -339 76 0 71 -23 71 324 1 241 4 320 15
351 8 21 13 41 11 42 -10 11 -126 14 -145 4 -20 -11 -20 -14 -6 -34 22 -31 23
-419 1 -397 -14 15 -107 165 -203 327 -30 51 -58 95 -63 98 -18 11 -117 14
-138 3z"/>
<path d="M3993 1659 c-7 -7 -13 -22 -13 -33 0 -11 -25 -101 -56 -200 -31 -100
-70 -226 -86 -281 -17 -55 -39 -119 -50 -142 -11 -23 -17 -47 -13 -53 9 -15
122 -13 132 2 4 7 6 25 4 40 -1 15 5 53 14 83 l16 55 114 0 114 0 20 -67 c11
-38 19 -79 18 -93 -2 -24 0 -25 76 -28 98 -4 111 5 86 56 -10 20 -61 174 -113
341 -52 167 -99 308 -103 312 -16 16 -147 22 -160 8z m101 -271 c15 -51 32
-105 36 -120 l9 -28 -81 0 c-60 0 -79 3 -75 13 2 6 19 60 37 120 18 59 36 107
40 107 4 0 19 -42 34 -92z"/>
<path d="M4962 1660 c-19 -8 -21 -13 -12 -29 23 -43 -6 -584 -34 -639 -21 -40
-5 -52 69 -52 77 0 94 10 76 43 -11 20 -12 66 -6 215 4 105 10 206 14 224 7
32 8 31 30 -37 64 -192 144 -394 158 -399 9 -4 21 -2 28 4 7 6 50 117 96 248
l84 237 6 -52 c8 -59 14 -416 8 -453 l-4 -25 90 0 c74 0 90 3 88 15 -1 8 -7
35 -12 60 -25 122 -47 564 -30 620 3 12 -12 17 -75 24 -49 6 -84 6 -93 0 -12
-7 -95 -218 -148 -371 -2 -7 -8 -13 -12 -13 -4 0 -37 82 -72 183 -35 100 -68
188 -74 195 -11 14 -140 16 -175 2z"/>
<path d="M5976 1660 c-11 -3 -21 -15 -22 -25 -5 -36 -15 -71 -75 -265 -113
-364 -121 -389 -135 -401 -24 -20 -4 -29 64 -29 78 0 103 10 83 34 -15 17 -9
68 14 124 l14 32 109 0 110 0 18 -66 c14 -53 15 -70 5 -85 -6 -11 -9 -24 -6
-29 8 -13 182 -13 190 0 3 5 -1 22 -9 38 -8 15 -60 172 -116 348 -57 175 -103
320 -105 322 -5 6 -122 8 -139 2z m93 -299 c17 -57 31 -109 31 -115 0 -7 -27
-11 -75 -11 -41 0 -75 4 -75 9 0 26 73 237 80 230 4 -5 21 -56 39 -113z"/>
<path d="M6456 1657 c-15 -11 -17 -17 -7 -35 8 -16 10 -108 8 -324 -2 -167 -6
-314 -8 -328 -4 -24 -2 -25 61 -28 89 -3 95 3 75 64 -12 39 -15 86 -13 234 l3
185 54 -90 c106 -176 232 -370 249 -383 10 -7 36 -12 62 -10 l45 3 5 325 c4
252 8 331 19 353 8 15 11 30 7 34 -10 10 -107 11 -133 2 -19 -7 -21 -12 -12
-36 5 -16 8 -113 7 -222 l-3 -194 -111 179 c-61 98 -123 200 -138 227 -15 26
-33 47 -39 47 -7 1 -35 3 -63 5 -32 3 -57 0 -68 -8z"/>
<path d="M7162 1662 c-21 -3 -22 -7 -15 -35 8 -31 10 -593 2 -652 l-4 -30 80
-3 c102 -3 108 1 89 57 -10 31 -14 76 -12 155 l3 111 111 3 c144 3 144 3 144
-122 0 -51 -6 -113 -14 -139 -10 -32 -10 -49 -3 -56 13 -13 173 -15 181 -2 3
5 -1 22 -9 37 -12 24 -15 81 -15 314 0 158 4 300 10 320 6 23 6 36 0 40 -15 9
-143 11 -157 2 -9 -5 -9 -26 -3 -77 12 -88 12 -176 2 -193 -7 -9 -39 -12 -128
-10 l-119 3 -3 102 c-2 77 1 110 13 132 11 22 12 32 3 37 -12 8 -117 12 -156
6z"/>
<path d="M7860 1661 c-62 -7 -62 -7 -32 -91 11 -30 46 -147 77 -260 31 -113
67 -241 79 -285 l23 -80 62 -3 c73 -4 87 5 101 62 6 22 29 102 51 176 22 74
43 143 46 154 3 10 9 14 13 10 4 -5 29 -92 55 -194 26 -102 52 -191 58 -198 7
-9 30 -12 70 -10 l59 3 20 65 c54 184 183 578 195 595 28 42 18 52 -54 57 -91
6 -93 5 -87 -50 5 -38 -4 -80 -45 -212 -27 -91 -56 -183 -64 -204 l-13 -39
-27 94 c-14 52 -40 148 -57 214 -17 66 -36 136 -41 156 -10 41 -27 49 -84 40
l-38 -6 -2 -55 c-1 -30 -17 -107 -35 -170 -18 -63 -43 -153 -56 -200 -13 -47
-27 -92 -30 -100 -13 -32 -128 428 -121 482 3 21 2 40 -1 42 -16 9 -71 12
-122 7z"/>
<path d="M8946 1658 c-2 -7 -12 -42 -21 -78 -26 -100 -153 -509 -176 -565 -11
-27 -21 -54 -22 -60 -3 -13 123 -18 142 -6 10 6 10 13 2 28 -7 15 -6 37 7 84
l17 64 112 3 112 3 16 -56 c9 -30 15 -68 14 -83 -5 -45 6 -52 84 -52 94 0 105
7 84 52 -15 32 -189 574 -203 631 -4 17 -16 32 -31 38 -37 14 -133 11 -137 -3z
m98 -270 c15 -51 32 -105 36 -120 l9 -28 -78 0 -79 0 37 120 c20 66 39 120 42
120 3 0 18 -42 33 -92z"/>
<path d="M4638 1302 c-167 -2 -168 -3 -174 -26 -3 -13 -4 -37 -2 -52 l3 -29
175 0 175 0 3 49 c2 27 0 52 -5 55 -4 3 -83 5 -175 3z"/>
</g>
</svg>
